<?xml version="1.0" encoding="utf-8"?>
<!-- Generator: Adobe Illustrator 19.1.0, SVG Export Plug-In . SVG Version: 6.00 Build 0)  -->
<svg version="1.1" xmlns="http://www.w3.org/2000/svg" xmlns:xlink="http://www.w3.org/1999/xlink" x="0px" y="0px"
	 viewBox="0 0 1000 500" style="enable-background:new 0 0 1000 500;" xml:space="preserve">
<style type="text/css">
	.st0{
		fill:#E1BFC5; }
	.st1{fill:#B2B3B3; }
	.st2{fill:#868786; }
	.st3{fill:#E0A2AA; }
	.st4{fill:#C4A4A9; }
	.st5{fill:#666766; }
	.st6{fill:#EDE2E2; }
	.st7{fill:#E5C7CD;}
	.st8{fill:#838483; }
	.st9{fill:#E8ACB3; }
	.st10{fill:#C1C1C0; }
	.st11{fill:#DDD7D7; }
	.st12{fill:#EDB7BE; }
	.st13{fill:#EDDFDF; }
	.st14{fill:#D7CCCC; }
	.st15{fill:#CC969D; }
	.st16{fill:#7D7D7D; }
	.st17{fill:#E2E0E0; }
	.st18{fill:#D49BA4; }
</style>
<g id="Layer_1">
	<polygon class="st0" points="0,0 134.7,500 0,500 	"/>
	<polygon class="st1" points="8.2,0 182.9,0 140.4,500 	"/>
	<polygon class="st2" points="192.1,0 148.5,500 212.8,500 	"/>
	<polygon class="st3" points="200.2,0 212.8,356.6 319.7,0 	"/>
	<polygon class="st4" points="212.8,377.3 327.8,0 361.1,500 	"/>
	<polygon class="st5" points="212.8,385.4 219.7,500 353.1,500 	"/>
	<polygon class="st6" points="366.9,500 343.9,126.7 493.3,208.4 	"/>
	<polygon class="st7" points="343.9,111.8 493.3,201.5 493.3,0 	"/>
	<polygon class="st8" points="343.9,100.7 334.7,0 480.6,0 	"/>
	<polygon class="st9" points="374.9,500 500,219.9 611.7,500 	"/>
	<polygon class="st10" points="619.7,500 680.6,0 756.5,500 	"/>
	<polygon class="st11" points="611.7,492.3 656.5,138.2 500,209.5 	"/>
	<polygon class="st12" points="500,193.4 670.3,0 656.5,126.7 	"/>
	<polygon class="st13" points="500,0 500,185.4 662.3,0 	"/>
	<polygon class="st14" points="764.6,500 688.1,0 756.5,0 	"/>
	<polygon class="st15" points="1000,500 1000,0 772.6,0 	"/>
	<polygon class="st16" points="764.6,0 772.6,265.8 850.8,193.4 	"/>
	<polygon class="st17" points="850.8,201.5 772.6,279.6 989.8,500 	"/>
	<polygon class="st18" points="772.6,291.1 772.6,500 978.3,500 	"/>
</g>
<g id="Layer_2">
</g>
</svg>
